<svg width="18" height="23" viewBox="0 0 18 23" fill="none" xmlns="http://www.w3.org/2000/svg">
<path d="M14 9.13953H4C2.61929 9.13953 1.5 10.2588 1.5 11.6395V19.1395C1.5 20.5202 2.61929 21.6395 4 21.6395H14C15.3807 21.6395 16.5 20.5202 16.5 19.1395V11.6395C16.5 10.2588 15.3807 9.13953 14 9.13953Z" stroke="#181818" stroke-width="2" stroke-linecap="round" stroke-linejoin="round"/>
<path d="M9 1.63953C7.67392 1.63953 6.40215 2.16631 5.46447 3.10399C4.52678 4.04167 4 5.31344 4 6.63953V9.13953H14V6.63953C14 5.31344 13.4732 4.04167 12.5355 3.10399C11.5979 2.16631 10.3261 1.63953 9 1.63953V1.63953Z" stroke="#181818" stroke-width="2" stroke-linecap="round" stroke-linejoin="round"/>
</svg>
